# xmcd
#
# Track frame offsets:
#	182
#	16982
#	66555
#	99952
#	115957
#	154542
#	188520
#	227462
#	262775
#	301867
#
# Disc length: 4255 seconds
#
# Revision: 43
# Processed by: cddbd v1.5.2PL0 Copyright (c) Steve Scherf et al.
# Submitted via: EasyCDDAExtractor 15.3.0.1
#
DISCID=6c109d0a
DTITLE=Cher - Strong Enough
DYEAR=1999
DGENRE=Pop
TTITLE0=Strong Enough (Album Version)
TTITLE1=Strong Enough (Club 69 Future Anthem Mix)
TTITLE2=Strong Enough (Pumpin' Dolls Vocal Epic Club)
TTITLE3=Strong Enough (Male Version)
TTITLE4=Strong Enough (Club 69 Phunk Mix)
TTITLE5=Strong Enough (Marc Andrews Remix Edit)
TTITLE6=Strong Enough (Pumpin' Dolls Cashmere Club Mix)
TTITLE7=Strong Enough (D-Bop's Melt Mix)
TTITLE8=Strong Enough (Club 69 Future Anthem Short Mix Edit)
TTITLE9=Strong Enough (Pumpin' Dolls Radio Edit)
EXTD=
EXTT0=
EXTT1=
EXTT2=
EXTT3=
EXTT4=
EXTT5=
EXTT6=
EXTT7=
EXTT8=
EXTT9=
PLAYORDER=
